PathFileType	4	(X/Y/Z)	D:\TRACE\v60_Jaco2_6-2-23\JustBodyDRS_Motion2_1-v60.trc
DataRate	CameraRate	NumFrames	NumMarkers	Units	OrigDataRate	OrigDataStartFrame	OrigNumFrames
100.00	100.00	      17	9	mm	100.00	2629	      7009
Frame#	Time	front left toe			Front right toe			aft left toe			aft right toe			Arm			FL body			FR body			AL Body			AR Body			
		X1	Y1	Z1	X2	Y2	Z2	X3	Y3	Z3	X4	Y4	Z4	X5	Y5	Z5	X6	Y6	Z6	X7	Y7	Z7	X8	Y8	Z8	X9	Y9	Z9	

2629	26.280	-196.25992	59.92567	-192.95232	151.66129	4.47978	-212.45921	-219.13959	32.38823	423.25806	189.08199	109.13980	428.76797	-139.21924	1178.08337	-376.22543	-100.14371	547.28278	-336.33911	60.34394	550.54938	-339.86194	-80.55740	596.66089	607.42047	76.35131	593.76642	606.09918	
2630	26.290	-195.49243	50.20618	-191.89519	152.97943	5.06961	-212.14011	-217.58598	31.03666	423.61047	188.99881	99.06386	430.23743	-138.80563	1177.70911	-374.12683	-98.42303	547.24719	-335.72681	61.99482	550.77533	-339.02859	-79.48914	595.67816	608.50800	77.10647	593.03595	606.88458	
2631	26.300	-194.36099	40.78357	-191.04668	153.80067	5.39481	-211.84966	-216.83771	30.53627	423.83813	189.30598	89.19524	431.04724	-138.12500	1177.91687	-372.49487	-96.47290	547.26636	-334.45563	62.81894	550.79315	-337.78403	-78.95356	594.73871	608.62164	77.89514	592.44244	607.68597	
2632	26.310	-193.09866	31.81240	-190.30586	155.07504	6.17793	-211.56584	-215.66208	29.80502	424.14258	190.41245	79.94495	431.34018	-137.26414	1178.00391	-371.17017	-94.92387	547.05450	-333.75470	64.67326	551.01813	-337.38840	-77.90027	593.91663	609.49725	79.08769	591.65033	608.59705	
2633	26.320	-191.73097	23.59975	-189.86015	156.33743	6.81928	-210.96976	-214.33466	28.86119	424.57239	191.44136	71.42274	431.46097	-136.69673	1178.11719	-370.73526	-94.49025	547.43286	-333.80121	66.27605	551.08173	-336.54166	-76.82892	593.03271	610.59460	79.91138	590.88092	609.54877	
2634	26.330	-190.54385	15.52670	-189.14989	157.19412	7.12858	-210.68700	-213.33073	27.97290	424.74390	193.26738	63.32735	431.38016	-135.10948	1177.84656	-368.62698	-92.94717	546.97498	-333.00806	67.72637	551.11353	-335.95343	-75.90031	591.77332	611.28558	80.79608	589.95203	610.19904	
2635	26.340	-189.46619	13.17883	-190.62727	158.31705	7.64705	-210.08286	-212.41484	26.91219	425.26407	195.51419	56.55625	431.03940	-134.18982	1177.12891	-368.25165	-91.10059	546.88055	-332.21545	68.61369	551.07379	-335.11118	-74.75614	590.30872	611.64178	81.81699	588.56262	611.07526	
2636	26.350	-189.34372	11.25377	-190.75266	159.32790	7.94996	-209.94319	-211.26830	26.00694	425.75125	197.62830	49.46314	430.61517	-133.09106	1177.06238	-367.12186	-89.11507	546.69995	-331.19910	70.91844	551.09698	-334.41208	-73.55408	589.23059	612.74731	83.23157	587.42664	611.55682	
2637	26.360	-188.78255	12.44743	-190.70418	160.42737	8.49642	-209.52393	-210.11423	25.28849	425.96533	199.19124	41.83158	430.26474	-131.67613	1177.38428	-364.63464	-87.94695	547.84607	-330.97171	71.82329	551.70233	-333.68652	-71.99346	588.02484	613.36151	84.59543	586.03955	612.33234	
2638	26.370	-187.01981	13.93219	-189.69533	161.65480	9.37464	-208.87755	-209.25262	24.61959	426.32306	199.63127	33.39092	429.28015	-130.40778	1178.14990	-364.00153	-86.99188	549.46063	-330.55972	73.64893	552.65179	-333.12067	-70.43877	587.12726	614.05347	86.21429	584.95032	613.20660	
2639	26.380	-185.07669	14.96081	-188.66151	162.88394	9.95930	-208.64970	-207.55928	23.23260	426.85028	201.07724	25.39855	425.55780	-127.56198	1179.55774	-360.57941	-83.92284	549.52252	-329.63165	75.44369	553.71442	-332.50510	-69.11906	586.27765	614.52039	87.45560	584.53394	613.78973	
2640	26.390	-183.96259	15.52492	-188.81888	163.85571	10.35255	-208.14198	-206.15981	22.99872	426.98956	204.85231	25.44044	427.07443	-125.19046	1181.24939	-358.99112	-82.48776	548.89746	-329.57797	77.82760	553.96405	-331.80292	-68.88616	587.15643	614.19104	88.39540	586.74835	614.49408	
2641	26.400	-181.86902	15.08003	-186.77612	166.61667	12.70662	-208.78067	-204.81505	25.34932	426.23163	206.09305	25.44688	430.32382	-122.83973	1183.20483	-358.03610	-79.87785	548.66028	-328.95459	80.11819	554.19427	-331.76385	-67.38423	588.54840	614.95227	89.61266	588.24109	614.61066	
2642	26.410	-180.36456	15.54257	-186.75291	166.41478	16.78076	-207.30504	-199.40894	28.43909	426.93878	206.06993	23.52515	430.42493	-122.07036	1184.38525	-357.92163	-78.12118	550.55835	-329.23926	81.71109	554.96021	-331.16464	-67.40653	588.25336	613.96100	90.49412	587.67682	614.84705	
2643	26.420	-179.05449	16.56035	-186.75858	166.17650	20.91202	-204.57211	-194.96103	31.79993	430.72638	208.15170	23.05275	430.36816	-122.16016	1183.61279	-358.17590	-76.17836	552.39032	-329.42810	84.15068	556.97546	-331.41937	-65.85413	587.37061	614.97961	91.63863	586.40289	615.01642	
2644	26.430	-177.84868	16.29497	-186.26672	164.47229	30.62135	-203.64937	-191.56215	38.42051	430.70273	208.68848	21.91393	431.30362	-122.01280	1183.06470	-359.73788	-74.18975	553.78577	-329.44189	85.72213	558.52441	-331.79111	-65.36512	585.56677	614.66833	92.11730	584.79199	614.71912	
2645	26.440	-177.05420	16.59828	-186.58675	164.94753	40.46609	-203.32837	-190.33820	47.08840	428.99057	209.52959	20.92578	430.52200	-120.67657	1183.56213	-358.46878	-73.38931	554.81653	-330.07968	86.38360	559.58429	-332.01529	-63.26714	584.25482	614.70776	93.61531	583.77069	614.39911	
